<svg xmlns="http://www.w3.org/2000/svg" viewBox="0 0 180 180" role="img" aria-labelledby="title">
  <title id="title">Símbolo da Contabilita Assessoria Contábil</title>
  <defs><linearGradient id="gold" x1="15%" y1="10%" x2="85%" y2="90%"><stop offset="0" stop-color="#9b6a21"/><stop offset=".24" stop-color="#f3d878"/><stop offset=".5" stop-color="#bd812a"/><stop offset=".74" stop-color="#ffe888"/><stop offset="1" stop-color="#8d5c1d"/></linearGradient></defs>
  <path d="M108 42a62 62 0 1 0 0 96c14-10 24-24 28-40h-27c-4 8-9 14-16 19a36 36 0 1 1 0-54c7 5 12 11 16 19h27c-4-16-14-30-28-40Z" fill="none" stroke="url(#gold)" stroke-width="8" stroke-linejoin="round"/>
  <path d="M143 42a62 62 0 1 0 0 96c14-10 24-24 28-40h-27c-4 8-9 14-16 19" fill="none" stroke="url(#gold)" stroke-width="8" stroke-linecap="round" stroke-linejoin="round"/>
</svg>
